<svg xmlns="http://www.w3.org/2000/svg" viewBox="0 0 640 360" role="img" aria-label="reconstruction and record comparison"><defs><pattern id="dots" width="8" height="8" patternUnits="userSpaceOnUse"><circle cx="2" cy="2" r=".55" fill="#c9cdd3"/></pattern><marker id="arrow" markerWidth="7" markerHeight="7" refX="6" refY="3.5" orient="auto"><path d="M0 0L7 3.5L0 7" fill="none" stroke="#24252a"/></marker></defs><rect width="640" height="360" fill="#f8f9f7"/><rect width="640" height="360" fill="url(#dots)"/><g font-family="Arial,sans-serif" stroke-width="1.5"><text x="28" y="34" font-size="13" fill="#24252a">reconstruction and record comparison</text><rect x="40" y="98" width="100" height="132" fill="#e6e8eb" stroke="#d0d4da"/><rect x="35" y="93" width="100" height="132" fill="white" stroke="#24252a"/><text x="47" y="118" font-size="13" fill="#24252a">record a</text><path d="M47 140h76" stroke="#a3a8b0"/><path d="M47 153h76" stroke="#a3a8b0"/><path d="M47 166h76" stroke="#a3a8b0"/><path d="M47 194h76" stroke="#a3a8b0"/><rect x="157" y="98" width="100" height="132" fill="#e6e8eb" stroke="#d0d4da"/><rect x="152" y="93" width="100" height="132" fill="#f5d5e3" stroke="#24252a"/><text x="164" y="118" font-size="13" fill="#24252a">record b</text><path d="M164 140h76" stroke="#a3a8b0"/><path d="M164 153h76" stroke="#a3a8b0"/><path d="M164 166h76" stroke="#a3a8b0"/><path d="M164 194h76" stroke="#a3a8b0"/><path d="M271 158L311 158" stroke="#24252a" fill="none" marker-end="url(#arrow)"/><rect x="329" y="106" width="265" height="51" fill="#e4eff0" stroke="#24252a"/><text x="343" y="136.5" font-size="16" fill="#24252a">compare the records</text><rect x="329" y="176" width="265" height="51" fill="white" stroke="#24252a"/><text x="343" y="206.5" font-size="16" fill="#24252a">supported explanation</text><text x="329" y="255" font-size="13" fill="#24252a">remaining gaps stay visible</text></g></svg>